<svg width="1728" height="1411" viewBox="0 0 1728 1411" fill="none" xmlns="http://www.w3.org/2000/svg">
<path d="M1726.5 800.5H0.5V1398L1726.5 1410.5V800.5Z" fill="url(#paint0_linear_33_131)"/>
<path d="M1294.01 817L941.006 818.051" stroke="white" stroke-opacity="0.4" stroke-width="4" stroke-linecap="round"/>
<path d="M947.922 849L1254.92 845" stroke="white" stroke-opacity="0.4" stroke-width="12" stroke-linecap="round"/>
<path d="M764 841H889" stroke="white" stroke-opacity="0.4" stroke-width="4" stroke-linecap="round"/>
<path d="M560 996.5H682.5M664 1078.5C672 1080.1 748 1079.17 785 1078.5M524 941H560M851 904.5C857 903.7 948.167 904.167 993 904.5M927 872.5H1083M925.5 868H1006.5M1158 936.5H1440.5M1397.5 1078.5C1408.7 1078.5 1476.17 1078.5 1508.5 1078.5M445 978.5H485" stroke="white" stroke-opacity="0.4" stroke-width="5"/>
<path d="M416.5 0.5C323.5 76.5 135.6 229.2 128 232V682H1443.5V304.5L1296.5 256.5L1246 215L1174.5 160.5L1074.5 215L949 147L776 232L693.5 118.5L610 147L416.5 0.5Z" fill="#44787B"/>
<path d="M128 228L416 0L323 93L406 67.5L689 196L701 185.5L693.5 130.5L635.5 166L611.5 146L696 118.5L773 230.5L952 146L1075.5 215L1175 159L1300.5 258.5L1392 286.5L1109.5 597L799.5 576.5L787.5 561C795.1 522.6 781 496 773 487.5L781 561C725 487.5 692 339 626 435L553 398C531 342.8 472.5 375 446 398C470 366.8 532.333 331.333 560.5 317.5C524.9 317.5 460 368.167 432 393.5L372 363.5L384.5 310L401 289L336 331L416 214L401 139V228L284 317.5L346.5 261C367.5 240.5 357.5 203 367.5 185.5L194.5 331L174.5 295L240.5 219L351 127L240.5 214L169.5 289L159.5 277.5L227 219L153 266L128 228Z" fill="#568D8B"/>
<path d="M468 39L415.5 0L406 67.5C385.6 109.1 403 150 413.5 157L624 368.5L741.5 365C707.1 380.6 722.167 409.5 734 422C765.6 456.8 798.833 415.5 811.5 390.5C790.129 402.9 765.262 395.667 755.5 390.5L797 360.5L823.5 382.5L797 433.5C797 483.5 833 537 792 585L804.5 592.5L850 533L833 567.5C845 579.5 863 575.167 870.5 571.5V537C901.3 500.6 902.333 476.167 899 468.5L842.5 378.5C782.1 332.5 854.5 260.5 902.5 223L828 209.5L792 204.5L745 182.5L696.5 119.5L702 200.5L672 269L667.5 260.5C683.5 242.1 672 207 672 187L625 157.5L596 129.5L575 119.5L479.5 43.5L468 39Z" fill="#D8965A"/>
<path d="M889 348C865.8 269.2 894.333 234.167 911.5 226.5L1071.5 290L1271.5 391L1299.5 273.5C1273.9 281.1 1250.17 303.333 1241.5 313.5L1219.5 253.5L1235 206.5L1299.5 257.5L1348.5 273.5L1276.5 409.5L1059.5 544.5L1032.5 511C1027 480.833 1027.1 426 1071.5 448C1067.5 440.333 1060.3 424.3 1063.5 421.5C1057.33 422.333 1042.5 426.4 1032.5 436C1027.17 438.167 1017 438.3 1019 421.5L1023.5 363.5L1008 337L987 357C994.667 354.833 1010.9 351.8 1014.5 357L1004 421.5L987 533H976L911.5 566L889 348Z" fill="#D8965A"/>
<path d="M869 251.5C866.5 265.167 864.9 302.7 856.5 317.5C851 335 862.8 342.8 884 360C887.167 355.167 888 347.5 885.5 334C890.403 342 907.2 351.9 954 355.5C971.667 354.333 1010.3 373.3 1023.5 458.5C1023.5 506 1022.5 521.2 1058.5 550C1039.5 549.5 997 545 979 531C984 522.667 992.5 499.8 986.5 475C979 444 970 435 959 430C950.2 426 949 438 949.5 444.5L968.5 477L962 508L974.5 531L1023.5 579.5L1187.5 494.5L1178.5 347L1189.5 312C1208.21 286.158 1213.56 253.386 1213.99 230.31C1211.79 270.663 1185.75 309.67 1171 326L1169 347L1155 285.5L1169 271L1150 280L1134 265.5L1161.5 251.5L1116.5 265.5L1113.5 291.5L1141 324.5L1150 342L1070.75 369.25L954 244V146L1074 210.5L1119.5 258C1118.67 250.5 1121.8 230.5 1141 210.5L1175 159L1238.5 207.5C1233.5 218.5 1233.9 243.5 1257.5 265.5C1250.67 273.667 1240 293.8 1252 309L1203.5 368.5L1312 262L1356 275.5L1276.5 353C1268.67 353.833 1249.3 358.6 1234.5 371L1279 324.5C1272 326.333 1251.8 337.7 1227 368.5L1244 412.5L1187.5 621.5L872 677L803.5 595.5L830.5 566.5C834.167 570.833 847.6 577.8 872 571V536.5L912 475L824 360C810 330 821.5 268 869 251.5Z" fill="#BDAF88"/>
<path d="M741.5 180.5C693.5 162.1 687.167 199.5 690 220.5C718.5 238.5 757 308.6 797 387C781.8 319.8 798.5 290.167 808 284.5C822.5 259 785 228 789.5 202.5L741.5 180.5Z" fill="#BDAF88"/>
<path d="M440.978 22.9701C436.194 17.6693 431.987 12.7643 428.5 8.5C431.991 11.4656 436.189 16.3862 440.978 22.9701C470.034 55.1692 520.346 101.974 559.5 108.5L662.5 251.5L768.5 381C793 381 833.5 364 851.5 395C883.833 428.167 949.6 497.8 958 507V554C928.5 520.411 865.7 445.887 850.5 416.5L837.5 396L844 416.5C834 413.167 815 401.4 819 381C807.833 385.5 780.5 393.8 760.5 391L764.5 384.5L732.5 368.5L640 416.5C588.5 305.194 487.214 86.542 440.978 22.9701Z" fill="#FBEBC5"/>
<path d="M1056 283.5L912.5 226.5C917.7 242.9 933.333 260.667 940.5 267.5C977 283.5 1005.5 337 1026.5 364L1084.5 392L1135 419V422.5L1101.5 404L1067.5 389.5L1035 372C1051 396 1127.67 449.333 1164 473L1263 429L1250.5 383.5L1062 286.5L1093.5 330L1166 356.5C1183.6 364.5 1185.33 372.833 1184 376L1229.5 410L1224 417.5L1211 410L1181 381.5L1177.5 372L1164 364L1117 342L1135 378.5L1150 410L1147.5 413.5L1125.5 393.5L1104 378.5L1068.5 367.5L1029.5 330L1072 366.5L1105.5 376L1125.5 388.5L1144 404L1101.5 337L1038 300.5L1072 312.5L1056 283.5Z" fill="#FBEBC5"/>
<path d="M298 321.5C219 360.5 205 385 188.5 394.5L244 682L672 744L881 659C805 583.833 645.2 427.6 614 404C582.8 380.4 553.333 384.167 542.5 389L504.5 420.5L298 321.5Z" fill="#F6E4BA"/>
<path d="M301 323.5C272.833 344.667 215.5 387.8 211.5 391L388.5 640L481.5 558.5L518.5 486.5L494.5 465.5L456 391L360 438.5L301 323.5Z" fill="#6A3B27"/>
<path d="M348.5 419C336.9 415 298.333 430 280.5 438L378.5 612.5L518.5 588.5C513.3 556.1 511 503.5 518.5 503.5C548 537.5 638.333 614 678 644.5L703 641L662.5 591.5L590 459.5L551 479.5L458.5 423.5C458.167 413 460.7 391.4 455.5 391C450.3 390.6 434.833 414.667 430 426.5C426 437 434.5 441.5 492.5 490.5L465.5 495.5L431.5 518L373 570L321 487.5C340.2 458.7 352 424 348.5 419Z" fill="#A7613E"/>
<path d="M280 438.5C305.833 425.833 362 405.5 380 425.5C383.5 432.5 358 486.5 336 510.5L374.992 559.99L403 536.995C429.73 513.358 453.021 491 486.5 491L448 429L456.5 391.5L550.5 469C562.5 463.333 587.5 452.6 591.5 455C595.5 457.4 644.5 546.333 668.5 590.5L731 644.5L694 640.5C673.2 598.9 641.667 586.833 628.5 586C616 583.5 614 571 589 464.5C587 475.3 563.5 503.333 552 516L560.5 545C558.1 544.2 531.833 517.667 519 504.5C515.333 498.632 502.1 488.317 478.5 494C449 501.104 411 540.995 403 536.995C394.201 544.775 385.03 552.694 375 560L374.992 559.99L369.5 564.5L280 438.5Z" fill="#C68353"/>
<path d="M384.5 539.5C367.7 505.1 338.833 503.833 326.5 507.5L384.5 705.5L745.5 767.5L795.5 675C774.3 636.2 701.333 636.167 667.5 641C619 641 562 585 539 592C509.8 577.6 485.167 581.333 476.5 585C450.1 549.8 404.167 540 384.5 539.5Z" fill="#F2B956"/>
<path d="M684 642C672.333 648.333 651.5 666.2 661.5 687C634.3 659.4 665.167 645.5 684 642Z" fill="#E6AE4A"/>
<path d="M484.5 585C432 608.5 496.5 691 496.5 695.5C527.167 709.333 589.7 732.4 594.5 714C600.5 691 537 561.5 484.5 585Z" fill="#E7AF4B"/>
<path d="M1656.5 117.5L1730 101.5V755L1 767V86.5C73 113 148.5 296.5 430 635C474 631 503.667 664 513 681C553 668.6 592 692.833 606.5 706.5C623.3 700.5 646.167 715 655.5 723C667.5 705.4 695.167 702 707.5 702.5C730.7 668.9 766.833 670.167 782 675C809.2 658.2 833 657 841.5 658.5L899.5 629H926C936 619 958.833 608.5 969 604.5C1062 519.5 1124.5 374.5 1231 407.5L1349.5 267.5C1382.3 227.9 1413.83 216.667 1425.5 216L1542 155C1555.6 126.2 1589 118 1604 117.5H1656.5Z" fill="#283E40"/>
<path d="M1656.5 117.5L1730 101.5V241.5C1673.2 317.9 1551.33 417.333 1497.5 457.5C1446.3 457.5 1373.17 506.5 1343 531L1275.5 614.5L994.5 673.5L1026.5 630L1036.5 603.5L1066.5 578.5L1093 568.5L1128 551.5H1147L1075 646L1147 561.5L1163.5 554L1189.5 537L1258.5 493.5L1307.5 484L1287.5 534L1241.5 565L1231 578.5L1198 610.5H1205.5L1241.5 572L1271 554L1299.5 534C1314.3 523.6 1315.67 515.333 1314.5 512.5L1348.5 470L1314.5 507.5L1307.5 503.5L1323 473.5L1252.5 491.5L1231 503.5L1185 534L1231 484L1287.5 457.5L1323 434.5L1345 429.5L1351.5 424.5L1407 371.5C1419.8 358.7 1448 350.167 1460.5 347.5L1497.5 306.5L1508 299L1524 297H1561.5C1573.5 280.2 1595.5 274.667 1605 274L1611.5 267.5H1605C1625 239.5 1651.67 226.5 1662.5 223.5C1639.7 220.7 1611 251.667 1599.5 267.5L1585 271L1571.5 274L1561.5 281.5L1556.5 290H1519.5H1510.5L1497.5 297L1487 306.5L1453.5 338.5L1402 371.5L1343 428L1321.5 432.5L1231 479L1343 338.5H1335.5L1168.5 539.5L1115.5 551.5L1075 572C1047 579 1030.5 604.5 1026.5 617.5C1023.3 627.9 985.5 666.167 967 684L926 674.5L952.5 649L998 614.5L1044.5 578.5L1098 554L1118.5 531L1111.5 534C1092.3 545.2 1040.83 578 1017.5 593L918.5 674.5H891.5L905.883 663.579C879.774 678.667 852.968 667.388 841.5 658.5L899.5 629H926C936 619 958.833 608.5 969 604.5C973.573 600.321 978.072 595.996 982.506 591.555C1066.49 507.438 1127.2 381.434 1224.8 405.766C1225.37 405.907 1225.93 406.053 1226.5 406.204C1198.1 405.167 1172.67 426.969 1163.5 438L1082 522.5L986.5 610.5L1066.5 545.5L1128 484L1168.5 449.5V470L1128 522.5L1231 407.5L1349.5 267.5C1382.3 227.9 1413.83 216.667 1425.5 216L1542 155C1555.6 126.2 1589 118 1604 117.5H1656.5Z" fill="#2E4C48"/>
<path d="M1705.5 157C1705.5 151.4 1712.17 136.667 1715.5 130L1640.5 141L1562 171.5L1493.5 259.5H1508.5L1522 239L1550 236C1563.2 210 1587.5 197.167 1598 194C1642 194 1705.5 164 1705.5 157Z" fill="#4A5950"/>
<path d="M1606.63 219.989C1610.9 219.366 1663.13 191.841 1689 178C1689.26 189.324 1659.16 215.557 1606.63 219.989C1606.58 219.996 1606.54 220 1606.5 220C1606.54 219.996 1606.59 219.993 1606.63 219.989Z" fill="#4A5950"/>
<path d="M1656.5 118.5L1730 102.5C1725.5 107.667 1715.8 121.8 1713 137C1695.83 145.167 1655.2 162.8 1630 168C1613 171.167 1571.6 181 1542 195C1552.83 177 1583.9 141.2 1621.5 142C1614.5 136 1591.9 131.7 1557.5 162.5L1520.5 178L1436.5 227.5C1428.67 227.167 1400.3 234.9 1349.5 268.5C1382.3 228.9 1413.83 217.667 1425.5 217L1542 156C1555.6 127.2 1589 119 1604 118.5H1656.5Z" fill="#596052"/>
<path d="M197.5 486.5L228.5 429.5L415 632.5L476 647.5L511.5 683L607.5 709L643 746L619 771C461.833 780.167 312.9 802.4 308.5 800C304.1 797.6 302.667 756.667 302.5 736.5L197.5 486.5Z" fill="#2A4343"/>
<path d="M1 86.5C73 113 148.5 296.5 430 635C438 642 458.9 678 478.5 766H455.5C413.833 710 322.3 581 289.5 513C141 358 89.8808 176.5 1 99V86.5Z" fill="#515E52"/>
<path d="M1.5 229.5C13.6667 230.833 38.6 238.5 41 258.5C55.1667 270 85.2 303.1 92 343.5C108.5 367.5 145.6 416.1 162 418.5C172.667 424.167 192.6 440.5 187 460.5C180.529 483.61 175.34 521.674 190.391 543.491C192.017 545.294 193.4 546.999 194.5 548.5C192.988 546.95 191.622 545.275 190.391 543.491C181.183 533.279 164.179 519.94 146.5 523C140 524.125 142 540.2 156 561C159.167 571.5 162.4 595.2 150 606C95.5 542 9.1 410.4 1.5 410V229.5Z" fill="#2B4443"/>
<path d="M99 300.5C85.4 280.9 49 262 32.5 255L150.5 603C251.7 648.6 279.667 711.333 281 737L323 756.5C320.5 746.5 308.6 714.3 281 665.5C246.5 604.5 236.5 476 198 442.5C159.5 409 116 325 99 300.5Z" fill="#515E52"/>
<path d="M604.5 705.5C630.1 702.3 649.167 717.5 655.5 725.5L641 736L604.5 720V709.5C585.833 707.833 543.2 700.8 522 686C513 688.333 489.1 684.5 465.5 650.5C458 648.333 440.5 642 430.5 634C476.9 630.4 504.5 665.833 512.5 684C553.7 666.8 591 691.167 604.5 705.5Z" fill="#515E52"/>
<path d="M1497.5 473.5C1617.5 406.7 1698.5 314.167 1726 276.5V487L1666 578.5L1699.5 542C1700 543.833 1701.6 549.1 1704 555.5C1706.4 561.9 1719.83 558.167 1727.5 555.5V647C1718.7 649.8 1678 636.833 1657.5 630C1539.9 584.8 1446.5 643.833 1414.5 679C1408.58 677.507 1402.17 676.694 1395.43 676.445C1447.78 626.4 1571 526 1626.5 550C1629.17 547.333 1624.3 542 1583.5 542C1542.7 542 1434.83 631.63 1386 676.445C1341.72 677.969 1287 699.864 1261 713C1279.4 686.6 1379 617.667 1426.5 586.5C1434.62 575.825 1448.11 558.34 1456.07 548.715C1445.2 558.54 1423.16 576.424 1410.5 586.5L1345.5 576.5L1414.5 520.5L1494.5 480L1414.5 512.5L1309.5 602C1299.5 602 1273 585 1261 576.5C1343.4 517.3 1453 483.167 1497.5 473.5Z" fill="#5A6055"/>
<path d="M1649 435.5C1625.4 414.7 1553.5 477 1508.5 509C1575.67 493.667 1713.4 458.5 1727 440.5V430.5C1716.83 437 1687 447.1 1649 435.5Z" fill="#FCF2D1"/>
<path d="M1414.5 678.5C1541.5 564 1643.5 632 1727 648.5V852.5H1327L1333.5 836C1349.5 812.4 1374.83 802.833 1385.5 801H460.5V808L491.5 827C542.3 821.4 574.667 846.333 584.5 859.5H628C658 860.3 650 870.5 641.5 870.5C631.5 868.9 447.667 884.167 357 892C307 891.2 223.5 918.333 188 932L419.5 992C437.1 1006.4 491.167 1016.67 516 1020C551.2 1034 530.667 1069.83 516 1086H2V698.5L334 770H479L477 761C509 727 543.5 742.5 547 742.5C577 713.7 641.833 728.5 670.5 739.5C683.7 723.1 710.667 723.667 722.5 726C758.1 691.6 805.333 693.333 824.5 698.5C852.5 666.9 930.833 676.667 966.5 685.5C1025.7 637.9 1088.5 633 1112.5 636.5C1182.5 590.5 1254.67 598.667 1282 608.5C1335.2 562.5 1402.17 573.333 1429 584.5L1260 714C1314 678.4 1385.5 675.5 1414.5 678.5Z" fill="url(#paint1_linear_33_131)"/>
<path d="M1415 680.5C1432.5 653.5 1488.6 607.6 1573 640C1577.16 644.447 1595.5 652.056 1637 651.792L1631.5 680.5L1727 690.5C1645.33 708.833 1471.5 751.9 1429.5 777.5C1393.5 756 1292.8 728.1 1178 788.5C1175.5 789.167 1168.5 792.6 1160.5 801H1070C1070.33 798.833 1072.4 793.9 1078 791.5C1065.83 776.333 1027.3 749.9 970.5 765.5C963.667 760.5 946.6 750.5 933 750.5C965.667 736 1038.8 718.7 1070 765.5C1090.5 769 1106.5 758.3 1124.5 761.5C1139.67 753.333 1176.6 737.2 1203 738C1171.83 724.167 1094.3 700.4 1033.5 716C1078 722 1109 754.5 1124.5 750.5C1117 765.5 1036.5 699.5 941 744C922.167 733.167 868.6 716.9 805 738.5C841.167 735.5 920.6 737.4 949 769C937.333 769.167 914.8 773.9 918 791.5L836.5 801H795C800.333 791.5 823.2 771.8 872 769C866.5 758.333 838.4 741 770 757C763.5 758.833 752.8 760.1 762 750.5C748.667 754.833 717.6 768 700 786L488.5 772L527.5 762.5L488.5 753.5C490.333 750.167 498.9 742.5 518.5 738.5L578 762.5L551.5 742.5C560.833 735.5 587.5 727.3 619.5 750.5C623 745.167 638.3 735.3 671.5 738.5C681.523 729.932 707.288 718.04 732.188 736.678C721.652 725.428 744.979 693.592 823 700C833.167 688.667 871.5 675.1 943.5 711.5C954.833 718.833 983.8 730.7 1009 719.5C1011.5 718.333 1017.2 716 1020 716C1005.5 706.5 974.4 687.3 966 686.5C990.5 675 1020 703 1054 706L1074 707.5C1086.33 675 1135.7 625.9 1234.5 689.5C1241.33 701.167 1269.1 719.8 1325.5 701C1390 689.5 1383.8 725 1451 713L1519.5 701L1563 706L1559 680.5L1526.5 695.5C1495 695.5 1451 680.5 1415 680.5Z" fill="#CC8B2F"/>
<path d="M1352 638C1284 610.8 1346.5 576 1386 576C1290.5 576 1291.9 617.7 1345.5 644.5L1352 638Z" fill="#AA5D2C"/>
<path d="M906.5 796C866.5 783.6 840.833 793.5 833 800H1049C1006.6 747.6 936.333 775.5 906.5 796Z" fill="#AA5D2C"/>
<path d="M1473 800.5C1471 788.9 1443.83 778 1430.5 774C1424.67 776.833 1406.3 786.1 1379.5 800.5C1412.3 792.1 1449.5 800 1464 805L1473 800.5Z" fill="#AA5D2C"/>
<path d="M1159.5 799.5H1339.5C1295 763.5 1218.7 768.3 1159.5 799.5Z" fill="#AA5D2C"/>
<path d="M1317 662.5C1259 648.1 1264.83 622.167 1275 611C1251.5 629 1223.5 646.5 1311 667.5L1317 662.5Z" fill="#AA5D2C"/>
<path d="M1575.5 755.5C1591.1 745.9 1684 726.167 1728.5 717.5V801.5L1665.5 836.5L1575.5 755.5Z" fill="#AA5D2C"/>
<path d="M200.5 801.5L124 796.5C138.333 800.333 173.7 820.6 200.5 871C216.9 865.8 286 887.167 318.5 898.5L405.5 891L387.5 885L222.5 820.5L200.5 801.5Z" fill="#D08D31"/>
<path d="M390.5 867.5L217 800C291.8 789.6 363.833 819 390.5 835C422.1 831.4 468.667 855.167 488 867.5C495.2 874.3 501.667 873.667 504 872.5C504 865.033 464.667 847.389 445 839.5C512.2 832.7 547.333 862.333 556.5 878C535.7 858 512.833 849.667 504 848L538.5 878L445 885C425.4 870.2 400.5 867.167 390.5 867.5Z" fill="#D08D31"/>
<path d="M219.5 917.5C199.9 892.3 65.6667 837 1 812.5V884L176 929L219.5 917.5Z" fill="#D08D31"/>
<path d="M437.5 799.5L379.5 773.5C427.5 763.1 478.833 786.5 498.5 799.5H437.5Z" fill="#D08D31"/>
<path d="M769.5 922H600C600 917.667 604.3 905.6 621.5 892C638.7 878.4 664.667 878.333 675.5 880C676.3 870.4 682.167 866 685 865C718.6 846.2 755.333 895.167 769.5 922Z" fill="#192E2E"/>
<path d="M490 801L527 759.5C533.667 757.167 548.4 755.7 554 768.5C557.167 764.833 566.4 758.6 578 763C586 756.333 606.7 748.8 625.5 772C657 718.5 727.3 755.3 704.5 786.5L707 801C720.5 785.667 755.9 758.4 789.5 772C806.167 768 838.6 768.2 835 801H707H490Z" fill="#1D3942"/>
<path d="M490 801L527 759.5C533.667 757.167 548.4 755.7 554 768.5C557.167 764.833 566.4 758.6 578 763C586 756.333 606.7 748.8 625.5 772C657 718.5 727.3 755.3 704.5 786.5L707 801C720.5 785.667 755.9 758.4 789.5 772C806.167 768 838.6 768.2 835 801H490Z" stroke="black"/>
<path d="M527 759.5C533.667 757.167 548.4 755.7 554 768.5C557.167 764.833 566.4 758.6 578 763C586 756.333 606.7 748.8 625.5 772C657 718.5 727.3 755.3 704.5 786.5L707 801C714.542 792.434 728.92 780.142 746 773.334C750.191 771.663 754.545 770.323 759 769.448C768.888 767.507 779.277 767.862 789.5 772C806.167 768 838.6 768.2 835 801L829 798L827 791.5L810.5 780L798.5 784H788L784 780L781.5 772H789.5C779.277 767.862 768.888 767.507 759 769.448L767.5 776L763 788.5L755 793L751.5 787L755 783L751.5 776L746 773.334C728.92 780.142 714.542 792.434 707 801L694.5 792.5L690.5 772L676.5 759.5L669.5 772L653 769.448V784L636.5 783L625.5 801L613 778.5H601L594 759.5L584.5 768.5L573 765.5L561 792.5H541.5C544.3 783.7 533 766 527 759.5Z" fill="#41564E"/>
<path d="M1647.5 856.5C1651.9 843.3 1698.67 817.333 1721.5 806C1727.5 744.8 1674.67 732.5 1647.5 734C1528.7 753.2 1432.33 823.667 1399 856.5H1647.5Z" fill="#274244"/>
<path d="M1469.5 945C1446 948.5 1436 986 1434 988.5H1703L1701.12 980.5H1727V908.5L1703 917L1693.5 948L1673 923.5L1661.5 891.5L1605.5 862H1554C1539.33 870.333 1508.4 887.9 1502 891.5C1494 896 1493 941.5 1469.5 945Z" fill="#152D31"/>
<path d="M1727.5 908.5L1712 913.5L1727.5 950V908.5Z" fill="#535E52"/>
<path d="M1503.5 930L1493 919.5L1553 862H1608.5C1610.9 862 1644.5 881.333 1661 891L1672.5 924L1694 949L1703 988H1614L1557 930H1503.5Z" fill="#535E52"/>
<path d="M1492.5 918.5L1502.5 893.5L1558 864.5C1595.6 872.9 1573.67 911.667 1558 930H1502.5L1492.5 918.5Z" fill="#274242"/>
<path d="M1643 932C1621 945.5 1620.5 985.5 1620.5 987.5L1699 989L1700.5 980.5H1673.5C1675.1 971.3 1653.83 944.333 1643 932Z" fill="#3E4F4B"/>
<path d="M1581.5 853H1424C1426.33 850.333 1444.9 840.8 1500.5 824C1556.1 807.2 1577.67 836.333 1581.5 853Z" fill="#152D31"/>
<path d="M1658.5 740C1624.5 727.6 1520.67 776.167 1473 802C1509 810 1534.5 802 1553 794C1567.8 787.6 1626.17 787.667 1653.5 788.5C1661.17 783.833 1680.2 774.1 1695 772.5C1709.8 770.9 1706.17 765.167 1702.5 762.5C1702 760.167 1692.5 752.4 1658.5 740Z" fill="#3A5046"/>
<path d="M1575.5 754.5C1602.67 744.5 1662.5 728.9 1684.5 746.5C1694.5 754.5 1631.1 769.3 1575.5 754.5Z" fill="#525D50"/>
<path d="M1479.5 756.5L1497 699.5L1505.5 746.5L1524 674L1537 739L1553.5 680.5L1563 729.5H1571L1577 699.5L1582.5 725.5L1594 723.5L1605 671.5L1611.5 719L1623 716.5L1636 653L1646 710.5L1664.5 705.5L1679 624L1689 698L1697.5 661L1707.5 694L1724 638L1728 653V691.5L1707.5 694L1689 698L1664.5 705.5L1646 710.5C1639.17 712.833 1623.31 715 1623 716.5L1611.5 719L1594 723.5L1582.5 725.5C1581.3 725.5 1574.33 728.167 1571 729.5H1563L1537 739L1505.5 746.5L1479.5 756.5Z" fill="#13302B"/>
<path d="M296 716C276 711.6 91 631.5 1 592V744.5C30.5 754.5 305.5 807 332 778C336.117 773.495 321 721.5 296 716Z" fill="#AE6741"/>
<path d="M299 717L2 591L73.5 663.5L299 717Z" fill="#C07A4B"/>
<path d="M213.5 732C199.1 717.2 156.833 722.833 137.5 727.5L104.5 762.5C161.333 771.667 280.2 789.6 301 788C327 786 322 781.5 321.5 776.5C321 771.5 231.5 750.5 213.5 732Z" fill="#975537"/>
<path d="M99.5 668.5C63.5 618.9 19.5 597.5 2 593V745C14.4 750.2 149.5 771.833 215.5 782C214.5 777.833 207.5 763.3 187.5 738.5C162.5 707.5 144.5 730.5 99.5 668.5Z" fill="#84482F"/>
<path d="M90 762.5C72.8 758.1 24.5 722 2.5 704.5V746.5L90 762.5Z" fill="#5F3423"/>
<path d="M1287 852L1306 835H1293L1270 852H1287Z" fill="#52695D"/>
<path d="M675 881C659.4 876.6 635.167 885.167 625 890C634.167 900.333 654.5 920.3 662.5 917.5C670.5 914.7 674.167 892 675 881Z" fill="#3B504C"/>
<path d="M729.5 875C704.7 849.8 684.833 866.5 678 878C673.667 891.5 680.8 916.4 744 908C749 909.167 759 912.8 759 918V910.5C759.5 909.167 754.3 900.2 729.5 875Z" fill="#3B504C"/>
<path d="M758 905.5C736.4 871.9 713.667 862.167 705 861.5C702.5 862.167 699 864.3 705 867.5C711 870.7 742.833 894.167 758 905.5Z" fill="#666764"/>
<path d="M892.5 948H826.5C829.833 945.167 840 935.8 854 921C868 906.2 885.5 932.833 892.5 948Z" fill="#163035"/>
<path d="M1128 906H1065C1063.17 903.167 1063.8 894.7 1081 883.5C1098.2 872.3 1119.5 893.833 1128 906Z" fill="#163035"/>
<path d="M1331 896H1278.5C1281 891.5 1289.7 881.8 1304.5 879C1319.3 876.2 1328.33 889.167 1331 896Z" fill="#163035"/>
<path d="M1235 875H1141.5C1150 866.833 1170.6 849.1 1185 843.5C1199.4 837.9 1224.33 862.167 1235 875Z" fill="#163035"/>
<path d="M866.5 920C870.167 930 888.5 955.008 888.5 945.5C888.5 939.5 877.5 927 866.5 920Z" fill="#52695D"/>
<path d="M1089 881C1097.67 888.667 1116.5 904.1 1122.5 904.5C1130 905 1100.5 878 1089 881Z" fill="#52695D"/>
<path d="M1304 881C1311 886.333 1325.4 896.5 1327 894.5C1329 892 1313.5 877.5 1304 881Z" fill="#52695D"/>
<path d="M1192.5 844.5C1185.3 843.7 1183.17 848.5 1183 851L1213 872.5H1229C1219.83 863.5 1199.7 845.3 1192.5 844.5Z" fill="#52695D"/>
<path d="M1293 835L1269 852.5H1329.5C1352.7 834.1 1314.83 833.167 1293 835Z" fill="#163035"/>
<path d="M416 955.5C422.8 958.3 423.833 981 423.5 992L255.5 945.5C259.333 938.333 268.5 921.7 274.5 912.5C282 901 334 901.5 366.5 901.5C399 901.5 407.5 952 416 955.5Z" fill="#16292E"/>
<path d="M103 895C92.6 859.4 71 862 56 897.5L223.809 940.451C206.609 906.051 184.667 912.5 176.5 920.5C170.9 894.5 148 817.5 103 895Z" fill="#122C35"/>
<path d="M292 913C314.4 915.4 320 906.667 320 902C333.333 902 363.3 902.5 376.5 904.5C389.7 906.5 406.333 939 413 955L420.5 959.5L422.5 992.5L312 959C315.6 943.8 300.167 922 292 913Z" fill="#364E48"/>
<path d="M371.5 922L330 909.5C368.8 897.9 385.167 907.333 388.5 913.5L393.5 956L342 931.5L370 927L371.5 922Z" fill="#525F54"/>
<path d="M95.5 903.5C96.3 900.7 88.8333 880.333 85 870.5C88.6 867.7 98.5 885.667 103 895C100.167 899 94.7 906.3 95.5 903.5Z" fill="#405449"/>
<path d="M196.5 915.5C194.5 922.667 196.6 937.1 221 937.5C217 927.5 200 913.5 196.5 915.5Z" fill="#405449"/>
<path d="M149.5 919.5C141.9 912.7 145 879.667 147.5 864C159.9 864 171.667 904.667 176 925C170.333 926 157.1 926.3 149.5 919.5Z" fill="#405449"/>
<path d="M38 939.5L34 952V1087H498.5L482.5 1057.5L471.5 1078.5L460.5 1047L452.5 1078.5L438.5 1047C434.667 1055 426.9 1071.6 426.5 1074C426.1 1076.4 419.333 1054.33 416 1043C411.5 1052.33 402.2 1071 401 1071C399.8 1071 392.5 1055 389 1047C385.5 1053.5 378.5 1067.4 378.5 1071V1049L370.5 1057.5L363 1026.5L349 1053.5L339.5 1026.5C336.333 1033.33 329.7 1048.3 328.5 1053.5C327.3 1058.7 322.333 1033.67 320 1020.5C317 1028.83 310.4 1045.8 308 1047C305.6 1048.2 301.667 1027.17 300 1016.5L286 1043L278 1007.5L265.5 1033.5L259.5 1011.5L254.5 1024L244.5 984.5L234.5 1011.5L223 984.5L215 1005L199 973L188 1002L174 965L163 991C161.8 967.4 147.5 976.833 140.5 984.5L135 952L120 1014.5L109.5 952L103 1005L94.5 956L87.5 996.5L76.5 945L67.5 980.5L61.5 936.5L45 965L38 939.5Z" fill="#A64E20"/>
<path d="M364 1086C315.2 1061.6 96 984 0 934V1086H364Z" fill="#57311E"/>
<defs>
<linearGradient id="paint0_linear_33_131" x1="863.5" y1="800.5" x2="863.5" y2="1410.5" gradientUnits="userSpaceOnUse">
<stop stop-color="#A0B9AA"/>
<stop offset="0.293908" stop-color="#A0B9AA"/>
<stop offset="1" stop-color="#EEDBB6"/>
</linearGradient>
<linearGradient id="paint1_linear_33_131" x1="1727" y1="830.383" x2="2" y2="830.383" gradientUnits="userSpaceOnUse">
<stop stop-color="#F5BF5B"/>
<stop offset="1" stop-color="#E4A242"/>
</linearGradient>
</defs>
</svg>
