<svg width="227" height="227" viewBox="0 0 227 227" fill="none" xmlns="http://www.w3.org/2000/svg">
<path d="M71.0004 142C64.2004 163.6 32.1671 172.334 17.0004 174C-75.9999 -30.0002 254.5 -71.5 224.5 142C195.5 124 179.5 86.0003 124 55.5004C103.5 44.2345 57.0004 51.0002 42.5004 64.0003C14.6604 88.9606 12.5004 126.5 42.5004 132.5C51.3004 148.1 65.167 145.334 71.0004 142Z" fill="#26A9E1"/>
<path d="M126 66C157.5 78 200 134 223 145.5C211.5 215.5 84.5 272 17 174C66.6 176.4 85.3333 142.333 88 125C93.6 131.8 98.6667 147.833 100.5 155C101.3 148.6 95.8333 133 93 126C103.4 140 105.667 165.167 105.5 176C110.3 163.2 104.167 139.333 100.5 129C105.7 137 109 155.333 110 163.5C110.8 140.7 101.333 121 96.5 114C105.7 118.8 119 143.333 124.5 155C123.3 144.2 113.667 127.167 109 120C123.5 136 132 162.833 134.5 178.5C133.442 152.398 125.826 133.969 120.84 125.749C120.164 124.7 119.544 123.778 119 123C119.551 123.729 120.172 124.647 120.84 125.749C125.963 133.691 134.32 148.866 137.5 163C133 136 126.453 126.517 126 126C153.2 157.2 184.333 165 196.5 165C175.3 164.6 152.667 146.833 144 138C103.6 90.0001 80.5 83.0001 74 85.5001C105.5 90.5001 87 127.5 65 110C71.4 118.4 77 118.833 79 118C79 148 35 141.5 51 112.5C46.6 116.1 43.8333 123 42.9999 126C15.5 121.5 31.2955 81.1027 47.5 71.5C88.0001 47.4999 116.167 67 129.5 80.5C179.5 135.5 180.5 146.093 217 151.5C176.5 145.5 153 83.3347 126 66Z" fill="#1A75BB"/>
</svg>
